<?xml version="1.0" encoding="iso-8859-1"?>
<!-- Uploaded to: SVG Repo, www.svgrepo.com, Generator: SVG Repo Mixer Tools -->
<svg height="800px" width="800px" version="1.1" id="Layer_1" xmlns="http://www.w3.org/2000/svg" xmlns:xlink="http://www.w3.org/1999/xlink" 
	 viewBox="0 0 512 512" xml:space="preserve">
<g>
	<path style="fill:#0B3BEC;" d="M256.006,290.438c0-80.836,143.713,0,143.713,0S256.006,371.286,256.006,290.438z"/>
	<path style="fill:#0B3BEC;" d="M256.006,338.342c0,80.848-143.725,0-143.725,0S256.006,257.506,256.006,338.342z"/>
</g>
<path style="fill:#0B3BEC;" d="M256.006,44.005c12.645-19.147,31.564-35.008,59.878-35.008v149.7c0,0,0,35.931-59.878,35.931
	c-59.889,0-59.889-35.931-59.889-35.931V8.998C224.442,8.998,243.349,24.858,256.006,44.005z"/>
<path d="M404.131,282.595c-0.971-0.546-24.105-13.497-52.172-23.988c-39.466-14.752-68.392-17.017-85.978-6.732
	c-0.333,0.196-0.654,0.398-0.975,0.6v-49.146c11.025-0.695,20.753-2.677,28.961-5.961c8.851-3.542,16.034-8.57,21.346-14.946
	c9.301-11.163,9.57-22.472,9.57-23.725V0h-8.998c-23.742,0-43.836,9.719-59.881,28.925C239.949,9.718,219.854,0,196.117,0h-8.998
	v158.698c0,1.253,0.269,12.563,9.572,23.727c5.314,6.375,12.497,11.403,21.35,14.945c8.211,3.285,17.939,5.267,28.967,5.961v18.233
	h-20.947v17.996h20.947v60.823c-0.323-0.202-0.643-0.406-0.975-0.6c-17.585-10.285-46.514-8.022-85.984,6.729
	c-28.07,10.49-51.206,23.442-52.178,23.988l-13.943,7.842l13.942,7.842c0.972,0.547,24.107,13.499,52.175,23.992
	c23.28,8.701,42.893,13.059,58.675,13.059c10.974,0,20.096-2.107,27.309-6.326c0.335-0.196,0.655-0.4,0.979-0.602v72.804h-20.947
	v17.996h20.947V512h17.996v-92.798h20.935v-17.996h-20.935v-72.803c0.323,0.203,0.644,0.407,0.979,0.602
	c7.213,4.218,16.333,6.325,27.307,6.325c15.781,0,35.393-4.357,58.672-13.06c28.067-10.493,51.199-23.445,52.171-23.992
	l13.941-7.842L404.131,282.595z M205.114,158.593V18.625c15.648,2.261,28.781,10.647,39.866,25.381
	c-5.973,8.8-15.944,25.231-15.944,36.854h17.996c0-4.354,4.199-12.819,8.929-20.605l0.048,0.073l7.504-11.364
	c11.6-17.566,26.161-27.729,43.372-30.311v139.94c-0.07,1.579-1.976,27.038-50.88,27.038
	C207.091,185.631,205.185,160.173,205.114,158.593z M236.949,361.373c-20.225,11.832-70.177-5.667-105.337-23.031
	c35.161-17.362,85.117-34.861,105.339-23.025c1.978,1.158,7.169,4.205,9.213,14.027H190.13v17.996h56.034
	C244.12,357.167,238.928,360.215,236.949,361.373z M275.068,313.471c-1.981-1.158-7.175-4.206-9.219-14.035h56.02V281.44h-56.02
	c2.042-9.822,7.233-12.87,9.213-14.028c4.607-2.696,10.752-3.868,17.919-3.868c24.293,0,60.269,13.491,87.418,26.897
	C345.258,307.811,295.319,325.314,275.068,313.471z"/>
</svg>